PathFileType  4	(X/Y/Z) c:\opencap-core-main\examples\Data\81a20db3-8b24-463d-8a5a-854c37a24678\MarkerData\PreAugmentation
DataRate	CameraRate	NumFrames	NumMarkers	Units	OrigDataRate	OrigDataStartFrame	OrigNumFrames
60.0	60.0	17	20	m	60.0	445	592
Frame#	Time	Neck			RShoulder			RElbow			RWrist			LShoulder			LElbow			LWrist			midHip			RHip			RKnee			RAnkle			LHip			LKnee			LAnkle			LBigToe			LSmallToe			LHeel			RBigToe			RSmallToe			RHeel			
		X1	Y1	Z1	X2	Y2	Z2	X3	Y3	Z3	X4	Y4	Z4	X5	Y5	Z5	X6	Y6	Z6	X7	Y7	Z7	X8	Y8	Z8	X9	Y9	Z9	X10	Y10	Z10	X11	Y11	Z11	X12	Y12	Z12	X13	Y13	Z13	X14	Y14	Z14	X15	Y15	Z15	X16	Y16	Z16	X17	Y17	Z17	X18	Y18	Z18	X19	Y19	Z19	X20	Y20	Z20	

445	7.4000000	0.3523600	0.6556600	-0.1305800	0.3428700	0.6489100	0.0528600	0.3869400	0.3071100	0.0988800	0.4905600	0.0925200	0.1268500	0.3713500	0.6618900	-0.3106800	0.3937400	0.3088100	-0.2906500	0.5199700	0.0960800	-0.3229200	-0.1034400	0.6399000	-0.1040600	-0.0971900	0.6328800	0.0317600	0.1260300	0.2976400	0.0221700	-0.0025200	-0.1380200	0.0201200	-0.1058800	0.6460500	-0.2443200	0.1075200	0.2804200	-0.2298800	-0.0338200	-0.1202700	-0.2539800	0.1151200	-0.2221600	-0.2549900	0.0923600	-0.2013700	-0.3317800	-0.0683600	-0.1480900	-0.2552700	0.1596300	-0.1871800	0.0549100	0.1249700	-0.1919600	0.0972000	-0.0577200	-0.1797400	0.0306900
446	7.4166667	0.3576700	0.6614800	-0.1189500	0.3472300	0.6501800	0.0589900	0.3855700	0.3131500	0.1047400	0.4905500	0.0943400	0.1284100	0.3713800	0.6673300	-0.3084400	0.3926100	0.3159100	-0.2874900	0.5199000	0.0967100	-0.3219900	-0.1029100	0.6396300	-0.1034000	-0.0947900	0.6322400	0.0347300	0.1278600	0.2979800	0.0249700	-0.0020900	-0.1377200	0.0207200	-0.1041200	0.6492100	-0.2476800	0.1040800	0.2819200	-0.2249700	-0.0339600	-0.1224200	-0.2522800	0.1137300	-0.2235100	-0.2532400	0.0891100	-0.2027100	-0.3284600	-0.0680900	-0.1482500	-0.2554900	0.1585600	-0.1874600	0.0562000	0.1258100	-0.1916400	0.0968900	-0.0576800	-0.1795000	0.0308800
447	7.4333333	0.3581900	0.6688600	-0.1164800	0.3470900	0.6580900	0.0562300	0.3826500	0.3211300	0.1093900	0.4893400	0.0951800	0.1294400	0.3740300	0.6731800	-0.2979500	0.3912000	0.3272800	-0.2859200	0.5197400	0.0996100	-0.3228300	-0.1014700	0.6396800	-0.1059600	-0.0925900	0.6352500	0.0312400	0.1285500	0.2961500	0.0235800	-0.0003400	-0.1368200	0.0228000	-0.1003700	0.6493300	-0.2523700	0.1005600	0.2815800	-0.2247900	-0.0342100	-0.1255700	-0.2498600	0.1114500	-0.2258700	-0.2495400	0.0867500	-0.2051900	-0.3246600	-0.0660800	-0.1474400	-0.2577800	0.1569800	-0.1878800	0.0580200	0.1277000	-0.1887900	0.0966100	-0.0576200	-0.1778700	0.0319000
448	7.4500000	0.3565800	0.6736100	-0.1185900	0.3461400	0.6694400	0.0489900	0.3805300	0.3315800	0.1100800	0.4870800	0.0964300	0.1302400	0.3757000	0.6770600	-0.2927800	0.3894300	0.3344500	-0.2898400	0.5197600	0.1038300	-0.3247000	-0.0979600	0.6399100	-0.1108000	-0.0875500	0.6367900	0.0274800	0.1281600	0.2953900	0.0197100	0.0016800	-0.1359200	0.0248800	-0.0956400	0.6468500	-0.2571300	0.0977600	0.2793800	-0.2280100	-0.0343300	-0.1274100	-0.2485300	0.1125400	-0.2259200	-0.2469300	0.0863500	-0.2078800	-0.3219100	-0.0646100	-0.1469300	-0.2591400	0.1566700	-0.1880000	0.0583200	0.1277500	-0.1876600	0.0984500	-0.0575400	-0.1762000	0.0329900
449	7.4666667	0.3571900	0.6766700	-0.1172600	0.3465700	0.6803700	0.0439700	0.3794700	0.3435100	0.1075600	0.4844500	0.1020600	0.1282400	0.3752500	0.6776700	-0.2981100	0.3848100	0.3382400	-0.2941100	0.5205500	0.1081300	-0.3233800	-0.0954900	0.6400100	-0.1138600	-0.0840500	0.6366500	0.0267200	0.1270200	0.2983700	0.0200400	0.0019300	-0.1359100	0.0245200	-0.0925000	0.6464200	-0.2609300	0.0959700	0.2752800	-0.2295300	-0.0343100	-0.1274800	-0.2485000	0.1159000	-0.2249300	-0.2444900	0.0864200	-0.2092800	-0.3206700	-0.0661700	-0.1490300	-0.2564800	0.1568700	-0.1880500	0.0578900	0.1250000	-0.1897000	0.0998300	-0.0574700	-0.1757400	0.0333800
450	7.4833333	0.3585900	0.6817200	-0.1143300	0.3487600	0.6888800	0.0462400	0.3752900	0.3529100	0.1096600	0.4813900	0.1146700	0.1231200	0.3729000	0.6806900	-0.3091700	0.3781500	0.3431900	-0.2981000	0.5205900	0.1121900	-0.3179500	-0.0962500	0.6400500	-0.1128500	-0.0856000	0.6359900	0.0267100	0.1252800	0.3023900	0.0263900	-0.0006200	-0.1369100	0.0224400	-0.0942700	0.6480600	-0.2601000	0.0958400	0.2708500	-0.2296300	-0.0342900	-0.1272500	-0.2486100	0.1183100	-0.2244900	-0.2432100	0.0845700	-0.2101600	-0.3186800	-0.0684900	-0.1539300	-0.2531900	0.1568300	-0.1880700	0.0577100	0.1238000	-0.1910400	0.0977900	-0.0574400	-0.1764200	0.0330300
451	7.5000000	0.3586300	0.6881300	-0.1138600	0.3529700	0.6963200	0.0569700	0.3639300	0.3580500	0.1225800	0.4764900	0.1334000	0.1217900	0.3694600	0.6875400	-0.3196400	0.3712700	0.3500500	-0.3093900	0.5136900	0.1201100	-0.3100300	-0.0985200	0.6395100	-0.1098200	-0.0884400	0.6339300	0.0268300	0.1217300	0.3020000	0.0293100	-0.0038600	-0.1376600	0.0227200	-0.0972200	0.6514000	-0.2568100	0.0962200	0.2710100	-0.2314800	-0.0344300	-0.1272100	-0.2487000	0.1189800	-0.2245900	-0.2435300	0.0805900	-0.2117500	-0.3147000	-0.0692500	-0.1583400	-0.2529000	0.1567200	-0.1878000	0.0578900	0.1254200	-0.1896600	0.0940700	-0.0576000	-0.1779700	0.0319500
452	7.5166667	0.3583000	0.6934800	-0.1160700	0.3571200	0.7028800	0.0682000	0.3454200	0.3668100	0.1396900	0.4703600	0.1522400	0.1268400	0.3673600	0.6917700	-0.3258300	0.3644000	0.3578300	-0.3277200	0.4997300	0.1340200	-0.3019700	-0.0974400	0.6392100	-0.1109700	-0.0881700	0.6328700	0.0273600	0.1131400	0.2953100	0.0182800	-0.0037100	-0.1370700	0.0256300	-0.0909000	0.6521400	-0.2601300	0.0966200	0.2732300	-0.2334000	-0.0347900	-0.1269400	-0.2492700	0.1197300	-0.2242100	-0.2449500	0.0788800	-0.2121300	-0.3132700	-0.0687800	-0.1598000	-0.2543300	0.1567400	-0.1877600	0.0579400	0.1262600	-0.1881700	0.0925000	-0.0576300	-0.1794900	0.0309400
453	7.5333333	0.3591900	0.6987500	-0.1196900	0.3575400	0.7077900	0.0701300	0.3303800	0.3754500	0.1486700	0.4654500	0.1648800	0.1348200	0.3686700	0.6930200	-0.3267100	0.3584400	0.3671000	-0.3413800	0.4887500	0.1486200	-0.2980700	-0.0926500	0.6414900	-0.1170600	-0.0859000	0.6382800	0.0266300	0.0996700	0.2874000	-0.0019600	-0.0000900	-0.1360000	0.0267600	-0.0809900	0.6504500	-0.2686700	0.0947000	0.2742700	-0.2319600	-0.0344400	-0.1269000	-0.2488500	0.1248900	-0.2207500	-0.2517000	0.0834100	-0.2090000	-0.3190300	-0.0666800	-0.1591300	-0.2566000	0.1569100	-0.1892600	0.0567000	0.1243300	-0.1886800	0.0948600	-0.0575200	-0.1798100	0.0307700
454	7.5500000	0.3595700	0.7069600	-0.1249400	0.3520300	0.7111100	0.0599100	0.3206200	0.3834600	0.1494000	0.4590900	0.1721800	0.1462400	0.3729400	0.6971600	-0.3187700	0.3538900	0.3798000	-0.3466800	0.4828600	0.1594400	-0.3012700	-0.0909200	0.6461400	-0.1195800	-0.0850800	0.6454800	0.0244000	0.0865800	0.2838000	-0.0141100	0.0022300	-0.1358200	0.0249000	-0.0832900	0.6509400	-0.2700500	0.0897100	0.2749300	-0.2289100	-0.0328000	-0.1281900	-0.2453100	0.1346900	-0.2153100	-0.2634200	0.0902100	-0.2060400	-0.3261500	-0.0633500	-0.1581700	-0.2594700	0.1571300	-0.1925400	0.0540800	0.1215700	-0.1897800	0.0982800	-0.0574200	-0.1796300	0.0309600
455	7.5666667	0.3552600	0.7168900	-0.1306700	0.3433300	0.7154800	0.0445600	0.3117600	0.3921500	0.1445100	0.4487000	0.1779600	0.1575800	0.3754000	0.7045200	-0.3028900	0.3500100	0.3957000	-0.3488000	0.4729200	0.1672800	-0.3106900	-0.0943200	0.6499200	-0.1159300	-0.0870300	0.6493400	0.0213700	0.0792700	0.2855600	-0.0098100	-0.0004100	-0.1369400	0.0220800	-0.0940300	0.6551100	-0.2627300	0.0845000	0.2770300	-0.2288600	-0.0318900	-0.1309300	-0.2414700	0.1396800	-0.2116700	-0.2702400	0.0920400	-0.2062700	-0.3271800	-0.0616200	-0.1577200	-0.2613600	0.1572200	-0.1959000	0.0518000	0.1216900	-0.1896400	0.0979300	-0.0573300	-0.1796300	0.0310000
456	7.5833333	0.3468900	0.7246900	-0.1332700	0.3378500	0.7266300	0.0341000	0.3015700	0.4040900	0.1370200	0.4345800	0.1898200	0.1603300	0.3721400	0.7133500	-0.2883900	0.3432000	0.4129700	-0.3483800	0.4550500	0.1745100	-0.3201900	-0.0966200	0.6512200	-0.1134700	-0.0876600	0.6508300	0.0176400	0.0793800	0.2915300	0.0013800	-0.0051800	-0.1385800	0.0204500	-0.0971200	0.6558200	-0.2552900	0.0820200	0.2784700	-0.2322100	-0.0333900	-0.1335000	-0.2415300	0.1397800	-0.2103900	-0.2714000	0.0927000	-0.2062000	-0.3276800	-0.0611500	-0.1592800	-0.2628000	0.1572300	-0.1972500	0.0505200	0.1243800	-0.1889600	0.0948100	-0.0578100	-0.1789100	0.0307300
457	7.6000000	0.3403600	0.7330200	-0.1334100	0.3375100	0.7436500	0.0287200	0.2881700	0.4193500	0.1371200	0.4181400	0.2105500	0.1560100	0.3664500	0.7241900	-0.2786900	0.3328000	0.4263700	-0.3474300	0.4378800	0.1812200	-0.3223500	-0.0947700	0.6529800	-0.1156300	-0.0850700	0.6549500	0.0135200	0.0796200	0.2991700	0.0074900	-0.0065500	-0.1384900	0.0219400	-0.0935500	0.6559800	-0.2509700	0.0831400	0.2823400	-0.2398800	-0.0352900	-0.1339100	-0.2438300	0.1407400	-0.2077700	-0.2743300	0.0957600	-0.2027000	-0.3328100	-0.0609500	-0.1624000	-0.2642700	0.1589300	-0.1971600	0.0484000	0.1258800	-0.1896800	0.0941600	-0.0577900	-0.1790800	0.0307400
458	7.6166667	0.3387900	0.7444300	-0.1314800	0.3383500	0.7576500	0.0257700	0.2713400	0.4344400	0.1508300	0.4026700	0.2265300	0.1547000	0.3633200	0.7375800	-0.2718300	0.3180900	0.4387200	-0.3532600	0.4235400	0.1925800	-0.3171900	-0.0925900	0.6573900	-0.1181100	-0.0806200	0.6576900	0.0097300	0.0717200	0.3016600	0.0067400	-0.0058200	-0.1365400	0.0253900	-0.0924400	0.6609800	-0.2483100	0.0900800	0.2951600	-0.2550300	-0.0354000	-0.1316300	-0.2459300	0.1412700	-0.2056600	-0.2765900	0.0965900	-0.2002700	-0.3355000	-0.0629900	-0.1643000	-0.2633000	0.1616400	-0.1959800	0.0457000	0.1256000	-0.1909000	0.0954800	-0.0575300	-0.1810900	0.0319300
459	7.6333333	0.3392400	0.7554300	-0.1247600	0.3369800	0.7636200	0.0262000	0.2564600	0.4482100	0.1680000	0.3845700	0.2339300	0.1630300	0.3637500	0.7530200	-0.2737400	0.3011800	0.4522700	-0.3673800	0.4091400	0.2096400	-0.3142100	-0.0937600	0.6617500	-0.1170400	-0.0770000	0.6560200	0.0092900	0.0600600	0.2973900	0.0035000	-0.0084800	-0.1347200	0.0282300	-0.0950500	0.6712400	-0.2470600	0.0985700	0.3138400	-0.2715800	-0.0348800	-0.1284500	-0.2476800	0.1361900	-0.2052900	-0.2735700	0.0914700	-0.2002600	-0.3321800	-0.0664500	-0.1646800	-0.2600600	0.1631900	-0.1935900	0.0454600	0.1268500	-0.1909600	0.0944200	-0.0574800	-0.1831900	0.0344700
460	7.6500000	0.3389200	0.7622500	-0.1196700	0.3339000	0.7639400	0.0257200	0.2477400	0.4625100	0.1758600	0.3631100	0.2405400	0.1742900	0.3670100	0.7624600	-0.2854600	0.2832900	0.4706700	-0.3788000	0.3892000	0.2298800	-0.3202500	-0.0977200	0.6635100	-0.1131700	-0.0777200	0.6554100	0.0144100	0.0543400	0.2926100	0.0038000	-0.0121900	-0.1346600	0.0289000	-0.0967900	0.6787400	-0.2472700	0.0992500	0.3236600	-0.2803800	-0.0349100	-0.1283000	-0.2473500	0.1312200	-0.2077200	-0.2680600	0.0860700	-0.2012200	-0.3279800	-0.0685700	-0.1646400	-0.2576500	0.1633600	-0.1923900	0.0459600	0.1302000	-0.1895800	0.0908000	-0.0576200	-0.1827000	0.0371100
461	7.6666667	0.3374100	0.7691100	-0.1238300	0.3307000	0.7642900	0.0218900	0.2421100	0.4772000	0.1751100	0.3472800	0.2504800	0.1833000	0.3646100	0.7727700	-0.2873100	0.2714700	0.4858200	-0.3783500	0.3673300	0.2451100	-0.3314200	-0.1010200	0.6630200	-0.1091900	-0.0803800	0.6555600	0.0207200	0.0544700	0.2891600	0.0107500	-0.0127100	-0.1359400	0.0274900	-0.0967800	0.6786400	-0.2470200	0.0908100	0.3213400	-0.2837300	-0.0351900	-0.1318100	-0.2453000	0.1322300	-0.2115500	-0.2648300	0.0863300	-0.2033600	-0.3261000	-0.0687300	-0.1670500	-0.2562300	0.1615400	-0.1945400	0.0432100	0.1320300	-0.1880700	0.0875800	-0.0577000	-0.1816800	0.0378300
